<svg viewBox="0 0 48 48" xmlns="http://www.w3.org/2000/svg"><g fill="#0f0" fill-rule="evenodd" transform="translate(4 4)"><path d="m36.538 36.923h-33.08c-.212 0-.385-.173-.385-.385v-22.692h33.846v22.692c0 .212-.173.385-.385.385m-33.08-30.769h2.692v1.538c0 .849.689 1.538 1.538 1.538.849 0 1.538-.689 1.538-1.538v-1.538h21.538v1.538c0 .849.689 1.538 1.538 1.538.849 0 1.538-.689 1.538-1.538v-1.538h2.692c.212 0 .385.172.385.385v4.231h-33.846v-4.231c0-.212.172-.385.385-.385m33.08-3.077h-2.692v-1.538c0-.849-.689-1.538-1.538-1.538-.849 0-1.538.689-1.538 1.538v1.538h-21.538v-1.538c0-.849-.689-1.538-1.538-1.538-.849 0-1.538.689-1.538 1.538v1.538h-2.692c-1.908 0-3.462 1.553-3.462 3.462v30c0 1.908 1.553 3.462 3.462 3.462h33.08c1.908 0 3.462-1.553 3.462-3.462v-30c0-1.908-1.553-3.462-3.462-3.462"/><path d="m25.07 17.539l-7.164 11.462-3.447-2.298c-.738-.493-1.738-.293-2.23.446-.493.739-.293 1.738.446 2.23l4.825 3.217c.265.178.576.27.891.27.113 0 .227-.012.339-.036.425-.091.795-.351 1.025-.721l8.04-12.867c.47-.752.242-1.744-.511-2.216-.752-.47-1.744-.242-2.216.511"/></g></svg>