<svg viewBox="0 0 152 53" xmlns="http://www.w3.org/2000/svg"><g fill="none" fill-rule="evenodd"><g fill="#0f0"><path d="m34.951 20.401c.004.002 76.12 0 76.12 0l32.01 5.292 4.564 4.524v9.06l-9.594 4.76h-3.913c.371-1.173.568-2.422.568-3.714 0-6.888-5.65-12.494-12.597-12.494-6.947 0-12.597 5.604-12.597 12.494 0 1.292.199 2.541.568 3.714h-48.544c.371-1.173.568-2.422.568-3.714 0-6.888-5.65-12.494-12.597-12.494-6.947 0-12.597 5.604-12.597 12.494 0 .403.023.802.061 1.195l-16-2.58 3-18.539h10.981m40.836-16.203h2.345l25.876 12.83h-24.22l-4-12.83m46.32 45.24c-5.067 0-9.192-4.09-9.192-9.117 0-5.03 4.125-9.116 9.192-9.116 5.07 0 9.194 4.088 9.194 9.116 0 5.03-4.124 9.117-9.194 9.117m-72.6 0c-5.07 0-9.194-4.09-9.194-9.117 0-5.03 4.124-9.116 9.194-9.116 5.067 0 9.192 4.088 9.192 9.116 0 5.03-4.125 9.117-9.192 9.117m-11.621-4.298c1.905 4.502 6.396 7.672 11.621 7.672 4.292 0 8.08-2.141 10.359-5.402h51.884c2.276 3.259 6.069 5.402 10.359 5.402 4.29 0 8.08-2.141 10.359-5.402h5.981c.264 0 .526-.062.761-.179l10.893-5.404c.577-.286.941-.871.941-1.511v-10.803c0-.449-.18-.877-.499-1.193l-5.446-5.404c-.252-.247-.574-.414-.922-.472l-32.433-5.36-32.454-16.09c-.231-.112-.493-.173-.757-.173h-4.368l-1.417.751 3.916 14.606c0 0-55.1.387-55.1.541l-.627.178-3.373 23.429c.002.804.574 1.496 1.368 1.654l18.95 3.163" transform="translate(-6)"/><path d="m70 23h6v2h-6z"/></g><path fill="#4f4f4f" d="m27 20h-12l-1.356-10z"/><g fill="#4a4a4a"><path d="m45 7h3v10h-3z"/><path transform="matrix(.682.73135-.73135.682 23.754-26.631)" d="m41 9h3v10h-3z"/></g></g></svg>