<svg viewBox="0 0 152 53" xmlns="http://www.w3.org/2000/svg"><g fill="#0f0" fill-rule="evenodd"><path d="m34.951 20.401c.004.002 76.12 0 76.12 0l32.01 5.292 4.564 4.524v9.06l-9.594 4.76h-3.913c.371-1.173.568-2.422.568-3.714 0-6.888-5.65-12.494-12.597-12.494-6.947 0-12.597 5.604-12.597 12.494 0 1.292.199 2.541.568 3.714h-68.54c.371-1.173.568-2.422.568-3.714 0-6.888-5.65-12.494-12.597-12.494-6.947 0-12.597 5.604-12.597 12.494 0 .403.023 2.802.061 3.195l-11-4.58v-18.539h28.981m36.431-16.203v12.83h-44.07l9.537-8.549c2.638-2.364 7.656-4.281 11.195-4.281h23.334m3.405 0h3.345l25.876 12.83h-29.22v-12.83m47.32 45.24c-5.067 0-9.192-4.09-9.192-9.117 0-5.03 4.125-9.116 9.192-9.116 5.07 0 9.194 4.088 9.194 9.116 0 5.03-4.124 9.117-9.194 9.117m-92.6 0c-5.07 0-9.194-4.09-9.194-9.117 0-5.03 4.124-9.116 9.194-9.116 5.067 0 9.192 4.088 9.192 9.116 0 5.03-4.125 9.117-9.192 9.117m-10.621-2.207c1.12 1.557 6.681 5.581 9.621 5.581 4.292 0 9.08-2.141 11.359-5.402h71.884c2.276 3.259 6.069 5.402 10.359 5.402 4.29 0 8.08-2.141 10.359-5.402h5.981c.264 0 .526-.062.761-.179l10.893-5.404c.577-.286.941-.871.941-1.511v-10.803c0-.449-.18-.877-.499-1.193l-5.446-5.404c-.252-.247-.574-.414-.922-.472l-32.433-5.36-32.454-16.09c-.231-.112 0 0 0 0-.418-.096-3.445-.173-6.756-.173h-32.668l-12.494 10.983c-2.492 2.191-4.708 4.374-4.708 4.374l.195-.407c-.108.225-.291.948-.291.948l-19.627.178-.373 23.429c.002.804.574 1.496 1.368 1.654 0 0 14.08 4.04 14.95 5.254"/><path d="m76 23h6v2h-6z"/></g></svg>