<svg viewBox="0 0 50 56" xmlns="http://www.w3.org/2000/svg" xmlns:xlink="http://www.w3.org/1999/xlink"><defs><path d="m1.403.884c-1.12.785-1.33 2.425-.56 3.637.489.642 1.259 1.07 2.099 1.07.56 0 1.05-.143 1.54-.5 1.119-.856 1.4-2.496.56-3.637-.49-.642-1.26-1.07-2.1-1.07-.56 0-1.05.143-1.54.5m.84 2.639c-.28-.428-.21-.999.21-1.284.14-.142.349-.142.489-.142.28 0 .56.142.7.357.28.428.21.998-.21 1.284-.14.143-.35.143-.49.143-.28 0-.56-.143-.7-.357" id="0"/><path d="m2.179.393c-1.33.428-2.1 1.926-1.68 3.281.42 1.07 1.4 1.783 2.519 1.783.28 0 .56-.072.771-.143.629-.214 1.19-.713 1.47-1.284.28-.642.35-1.355.14-1.997-.35-1.07-1.33-1.783-2.45-1.783-.28 0-.56.071-.77.143m0 2.781c-.14-.499.14-.998.56-1.141.07 0 .21-.072.28-.072.42 0 .7.285.84.642.07.214.07.5-.07.714-.14.213-.28.357-.49.428-.07 0-.21.071-.28.071-.419 0-.699-.286-.839-.642" id="1"/><path d="m.14 3.483c0 1.712 1.4 3.138 3.08 3.138 1.68 0 3.08-1.426 3.08-3.138-.07-1.783-1.4-3.138-3.08-3.138-1.68 0-3.08 1.426-3.08 3.138m1.68-.072c0-.785.63-1.426 1.4-1.426.77 0 1.4.642 1.4 1.426-.07.785-.631 1.426-1.4 1.426-.77 0-1.4-.642-1.4-1.426" id="2"/><path d="m.425 7.07c0 3.922 3.08 7.06 6.929 7.06 3.849 0 6.929-3.138 6.929-7.06 0-3.922-3.15-7.06-6.929-7.06-3.85 0-6.929 3.138-6.929 7.06m1.68 0c0-2.924 2.379-5.349 5.249-5.349 2.87 0 5.249 2.425 5.249 5.349 0 2.995-2.379 5.349-5.249 5.349-2.87 0-5.249-2.425-5.249-5.349" id="3"/><path d="m.164 3.657c0 1.712 1.4 3.138 3.08 3.138 1.75-.072 3.08-1.426 3.08-3.138 0-1.712-1.4-3.138-3.08-3.138-1.68 0-3.08 1.426-3.08 3.138m1.75-.072c0-.784.63-1.426 1.4-1.426.77 0 1.4.642 1.4 1.426-.07.785-.63 1.427-1.4 1.427-.77 0-1.4-.642-1.4-1.427" id="4"/><path d="m.175 3.533c.07 1.783 1.4 3.138 3.08 3.138 1.68 0 3.08-1.426 3.08-3.138 0-1.712-1.4-3.138-3.08-3.138-1.68 0-3.08 1.426-3.08 3.138m1.68.072c.07-.785.63-1.426 1.4-1.426.771 0 1.4.642 1.4 1.426 0 .784-.629 1.426-1.4 1.426-.77 0-1.4-.642-1.4-1.426" id="5"/><path d="m.148 2.903c.07 1.498 1.19 2.638 2.59 2.638 1.4 0 2.59-1.141 2.59-2.638 0-1.427-1.12-2.638-2.59-2.638-1.4 0-2.59 1.141-2.59 2.638m1.68.072c.07-.5.42-.928.91-.928.49 0 .91.428.91.928 0 .499-.42.927-.91.927-.49 0-.91-.428-.91-.927" id="6"/><path d="m.524 2.104c-.21.642-.14 1.355.14 1.997.35.57.84 1.07 1.54 1.283.28.072.56.143.77.143 1.12 0 2.1-.713 2.45-1.783.42-1.355-.28-2.853-1.68-3.281-.28-.072-.559-.143-.77-.143-1.12 0-2.1.714-2.45 1.783m2.17 1.641c-.49-.143-.7-.714-.56-1.142.14-.357.49-.642.84-.642.07 0 .21 0 .28.072.489.143.7.642.56 1.141-.14.357-.49.642-.84.642-.07 0-.21 0-.28-.071" id="7"/><path d="m.95 1.383c-.84 1.141-.56 2.781.56 3.636.42.357.98.5 1.54.5.84 0 1.61-.428 2.1-1.07.42-.571.56-1.284.489-1.926-.14-.713-.489-1.284-1.05-1.712-.42-.357-.98-.499-1.54-.499-.839 0-1.61.357-2.099 1.07m1.61 2.21c-.42-.214-.49-.784-.21-1.212.14-.214.419-.357.699-.357.21 0 .35.072.49.143.21.143.35.357.35.571.07.214 0 .499-.14.642-.14.214-.42.357-.7.357-.21 0-.35-.072-.489-.143" id="8"/><mask id="H" fill="#0f0"><use xlink:href="#6"/></mask><mask id="E" fill="#fff"><use xlink:href="#8"/></mask><mask id="G" fill="#fff"><use xlink:href="#7"/></mask><mask id="F" fill="#fff"><use xlink:href="#5"/></mask><mask id="D" fill="#fff"><use xlink:href="#4"/></mask><mask id="C" fill="#fff"><use xlink:href="#1"/></mask><mask id="9" fill="#fff"><use xlink:href="#3"/></mask><mask id="B" fill="#fff"><use xlink:href="#2"/></mask><mask id="A" fill="#fff"><use xlink:href="#0"/></mask></defs><g fill="0f0" fill-rule="evenodd" transform="translate(2 2)"><g fill="#0f0"><path mask="url(#A)" transform="translate(14.987 17.284)" d="m-4.641 10.667h15.198v-15.359h-15.198z"/><path mask="url(#C)" transform="translate(17.572 8.931)" d="m-4.642 10.532h15.189v-15.359h-15.189z"/></g><path d="m37.39 46.34l-.91.143h-.7c-4.62 0-8.329-3.779-8.329-8.486 0-4.707 3.71-8.487 8.329-8.487 4.62 0 8.329 3.78 8.329 8.487 0 4.136-2.87 7.559-6.72 8.344m-13.579-3.922c0-4.849-3.85-8.772-8.609-8.772-3.57 0-6.579 2.211-7.909 5.348l-3.57-15.404c2.45 2.71 6.02 4.421 9.939 4.421 7.489 0 13.579-6.204 13.579-13.835 0-.713-.07-1.355-.14-1.997l12.04 16.26c-1.05-.357-2.17-.571-3.36-.571-5.529 0-10.01 4.564-10.01 10.198 0 3.994 2.31 7.488 5.669 9.2l-10.149 1.498c1.54-1.64 2.52-3.922 2.52-6.347m-15.469 1.284v-.071c-.07-.357-.07-.785-.07-1.141 0-3.922 3.149-7.06 6.929-7.06 3.849 0 6.929 3.209 6.929 7.06 0 3.352-2.31 6.133-5.389 6.918l-1.19.143h-.07-.35c-3.36 0-6.159-2.496-6.789-5.848m5.25-41.647c6.579 0 11.898 5.42 11.898 12.12 0 6.704-5.32 12.12-11.898 12.12-5.11 0-9.519-3.352-11.199-7.987l-.21-.785c0-.143-.07-.214-.14-.357-.21-.927-.35-1.997-.35-2.995 0-6.633 5.389-12.12 11.899-12.12m32.2 36.01c0-2.353-.77-4.492-2.1-6.204 0-.072-.07-.143-.07-.214l-19.458-26.24c-.07-.072-.14-.143-.21-.214-2.52-2.995-6.159-4.849-10.289-4.849-7.559 0-13.648 6.205-13.648 13.835 0 1.569.28 3.138.77 4.564l5.88 25.17c.7 4.136 4.269 7.274 8.469 7.274.63 0 1.26-.072 1.89-.214l19.598-2.853c.35 0 .7-.071 1.05-.143l.35-.071c.14 0 .21-.072.28-.143 4.339-1.07 7.489-4.992 7.489-9.699" fill="#0f0"/><g fill="#0f0"><path mask="url(#B)" transform="translate(32.559 34.51)" d="m-4.886 11.698h16.212v-16.429h-16.212z"/><path mask="url(#9)" transform="translate(28.424 30.856)" d="m-4.602 19.2h23.912v-24.271h-23.912z"/><path mask="url(#D)" transform="translate(11.887 38.686)" d="m-4.862 11.872h16.212v-16.43h-16.212z"/><path mask="url(#F)" transform="translate(10.336 10.497)" d="m-4.851 11.748h16.212v-16.429h-16.212z"/><path mask="url(#H)" transform="translate(10.853 3.711)" d="m-4.878 10.618h15.232v-15.431h-15.232z"/><path mask="url(#G)" transform="translate(3.618 8.931)" d="m-4.624 10.604h15.195v-15.359h-15.195z"/><path mask="url(#E)" transform="translate(6.202 17.284)" d="m-4.565 10.596h15.248v-15.36h-15.248z"/></g></g></svg>