<svg viewBox="0 0 56 56" xmlns="http://www.w3.org/2000/svg" xmlns:xlink="http://www.w3.org/1999/xlink"><defs><path id="0" d="m47.33.296h-47.23v50.29h47.23v-50.29"/><path d="m3.419.394c-1.652 2.449-3.419 5.61-3.419 7.134 0 2.281 1.859 4.135 4.143 4.135 2.285 0 4.144-1.855 4.144-4.135 0-1.524-1.766-4.685-3.419-7.134-.15-.221-.42-.354-.725-.354-.304 0-.576.132-.725.354m-1.671 7.134c0-.829 1.124-2.965 2.176-4.687l.22-.36.22.36c1.052 1.722 2.176 3.858 2.176 4.687 0 1.319-1.075 2.393-2.396 2.393-1.321 0-2.396-1.073-2.396-2.393" id="1"/><mask id="2" fill="#0f0"><use xlink:href="#0"/></mask><mask id="3" fill="#fff"><use xlink:href="#1"/></mask></defs><g fill="#0f0" fill-rule="evenodd" transform="translate(2 3)"><path d="m45.09 48.37c-.664.046-1.37.142-2.097.286l-.211.041-.079-.199c-1.578-3.977-3.624-7.441-6.082-10.296l-.151-.174 2.508-2.703c.204-.22.396-.469.57-.741l.219-.342.217.343c2.462 3.896 4.309 8.555 5.342 13.475l.061.29-.296.021m-10.275-11.126c-.173.173-.368.199-.469.199-.081 0-.287-.018-.451-.181l-11.408-11.712c-.915-.96-2.201-1.511-3.53-1.511-1.018 0-2 .316-2.84.913-.407.29-.99.229-1.328-.135l-.713-.766c-.379-.406-.368-1.033.027-1.427l9.09-9.05 1.294 1.256.004.23c.014.756.346 1.478.909 1.983l12.223 12.377c1.287 1.304 1.319 3.376.073 4.717l-2.879 3.105m-5.109-.564c-1.224 1.221-2.852 1.894-4.582 1.894-1.731 0-3.358-.673-4.582-1.894l-6.107-6.095c-1.036-1.033-1.199-2.668-.389-3.886l.121-.182.199.089c.92.413 1.986.318 2.78-.246 1.236-.881 3.03-.706 4.083.399l9.08 9.321-.601.6m-19.321-25.57l3.03-3.03 6.393 6.379-3.034 3.03-6.392-6.38m-8.358-5.537l1.049-3.143 8.764 4.749-2.675 2.669-7.138-4.275m45.25 43.35l-.011-.041c-1.139-6.226-3.579-12.196-6.87-16.809l-.049-.07v-.085c.028-1.403-.498-2.725-1.483-3.722l-12.295-12.447c-.206-.178-.331-.444-.335-.724l-.002-.123c0-.545-.233-1.054-.628-1.431l-1.024-.981c-.761-.729-2.084-.717-2.829.029l-.708.707-7.02-7c-.171-.17-.409-.258-.658-.246l-.072.003-10.305-5.583c-.227-.123-.498-.139-.739-.045-.241.095-.426.29-.508.535l-1.601 4.793c-.131.39.025.81.379 1.022l7.785 4.661.034.077c.045.107.107.199.181.274l7.02 7-2.676 2.67c-1.047 1.044-1.098 2.671-.118 3.783l.139.158-.127.168c-1.443 1.91-1.255 4.625.438 6.315l6.108 6.095c1.553 1.551 3.619 2.405 5.817 2.405 2.198 0 4.264-.854 5.817-2.405l.583-.581 1.126 1.155c.451.45 1.054.699 1.697.7.178 0 .364-.026.587-.083l.154-.039.105.12c2.51 2.879 4.663 6.625 6.225 10.835.15.405.575.651 1.032.543 1.466-.364 2.791-.523 3.954-.472l.04.002c-.009 0-.022 0-.034.004.529-.005.921-.395.921-.876 0-.101-.018-.2-.051-.292" mask="url(#2)" transform="translate(4.643.22)"/><path mask="url(#3)" transform="translate(0 10.544)" d="m-2.579 14.245h13.446v-16.785h-13.446z"/></g></svg>