<svg viewBox="0 0 103 25" xmlns="http://www.w3.org/2000/svg" xmlns:xlink="http://www.w3.org/1999/xlink"><defs><path d="m1.545.525c-.591 0-1.075.453-1.075 1.013v16.799c0 .566.481 1.012 1.075 1.012h10.213c.591 0 1.076-.453 1.076-1.012v-16.799c0-.566-.482-1.013-1.076-1.013h-10.213" id="0"/><path d="m1.44.525c-.591 0-1.076.453-1.076 1.013v16.799c0 .566.481 1.012 1.076 1.012h10.212c.591 0 1.076-.453 1.076-1.012v-16.799c0-.566-.481-1.013-1.076-1.013h-10.212" id="1"/><path d="m1.651.525c-.591 0-1.076.453-1.076 1.013v16.799c0 .566.482 1.012 1.076 1.012h10.212c.591 0 1.076-.453 1.076-1.012v-16.799c0-.566-.481-1.013-1.076-1.013h-10.212" id="2"/><mask id="3" fill="#fff"><use xlink:href="#0"/></mask><mask id="4" fill="#fff"><use xlink:href="#1"/></mask><mask id="5" fill="#fff"><use xlink:href="#2"/></mask></defs><g fill="none" fill-rule="evenodd" transform="translate(5 2)"><g transform="translate(.659.253)" stroke="#424242" stroke-width="1.6"><path d="m.046 1.537c0-.559.485-1.012 1.076-1.012h10.212c.594 0 1.076.447 1.076 1.012v16.799c0 .559-.485 1.012-1.076 1.012h-10.212c-.594 0-1.076-.447-1.076-1.012v-16.799"/><path d="m15.5 1.537c0-.559.485-1.012 1.076-1.012h10.212c.594 0 1.076.447 1.076 1.012v16.799c0 .559-.485 1.012-1.076 1.012h-10.212c-.594 0-1.076-.447-1.076-1.012v-16.799"/><path d="m30.955 1.537c0-.559.485-1.012 1.076-1.012h10.212c.594 0 1.076.447 1.076 1.012v16.799c0 .559-.485 1.012-1.076 1.012h-10.212c-.594 0-1.076-.447-1.076-1.012v-16.799"/></g><g transform="translate(62.05.253)"><path fill="#4a4a4a" mask="url(#3)" d="m-4.904 24.424h23.11v-28.975h-23.11z"/><path stroke="#fff" stroke-width="1.6" mask="url(#3)" d="m-4.904 24.424h23.11v-28.975h-23.11z"/></g><path d="m62.52 1.79c0-.559.485-1.012 1.076-1.012h10.212c.594 0 1.076.447 1.076 1.012v16.799c0 .559-.485 1.012-1.076 1.012h-10.212c-.594 0-1.076-.447-1.076-1.012v-16.799" stroke="#424242" stroke-width="1.6"/><g transform="translate(46.705.253)"><path fill="#4a4a4a" mask="url(#4)" d="m-5.01 24.424h23.11v-28.975h-23.11z"/><path stroke="#fff" stroke-width="1.6" mask="url(#4)" d="m-5.01 24.424h23.11v-28.975h-23.11z"/></g><path d="m47.07 1.79c0-.559.485-1.012 1.076-1.012h10.212c.594 0 1.076.447 1.076 1.012v16.799c0 .559-.485 1.012-1.076 1.012h-10.212c-.594 0-1.076-.447-1.076-1.012v-16.799" stroke="#424242" stroke-width="1.6"/><g transform="translate(77.4.253)"><path fill="#4a4a4a" mask="url(#5)" d="m-4.799 24.424h23.11v-28.975h-23.11z"/><path stroke="#fff" stroke-width="1.6" mask="url(#5)" d="m-4.799 24.424h23.11v-28.975h-23.11z"/></g><g transform="translate(3.45.253)"><path d="m75.6 1.032c-.297 0-.539.227-.539.505v16.799c0 .283.237.505.539.505h10.212c.297 0 .538-.227.538-.505v-16.799c0-.283-.237-.505-.538-.505h-10.212m10.212 18.824h-10.212c-.89 0-1.613-.682-1.613-1.52v-16.799c0-.838.723-1.52 1.613-1.52h10.212c.889 0 1.613.682 1.613 1.52v16.799c0 .838-.724 1.52-1.613 1.52" fill="#424242"/><g fill="#4a4a4a"><path d="m1.923 8.307c-.339.555-.509 1.284-.509 2.186 0 .902.17 1.631.509 2.186.338.555.867.833 1.586.833.718 0 1.243-.276 1.573-.827.331-.552.496-1.282.496-2.192 0-.909-.165-1.639-.496-2.191-.331-.551-.855-.828-1.573-.828-.719 0-1.247.277-1.586.833m-1.035 5.233c-.58-.759-.869-1.775-.869-3.048 0-1.272.29-2.288.869-3.047.579-.76 1.453-1.139 2.62-1.139 1.167 0 2.041.38 2.62 1.139.58.759.869 1.775.869 3.047 0 1.272-.29 2.289-.869 3.048-.58.76-1.453 1.139-2.62 1.139-1.167 0-2.041-.38-2.62-1.139"/><path d="m16.986 6.503h3.114v8.08h-1.375v-6.871h-1.739z"/><path d="m31.823 7.717v-1.214h5.01v1.065l-2.069 2.186c.784.023 1.396.256 1.837.699.441.444.661.973.661 1.59 0 .826-.297 1.473-.888 1.943-.592.471-1.353.706-2.283.706-.931 0-1.841-.281-2.731-.845l.613-1.098c.701.463 1.436.694 2.203.694.498 0 .908-.11 1.231-.329.322-.22.484-.536.484-.949 0-.413-.18-.741-.539-.988-.359-.246-.857-.37-1.494-.37-.318 0-.624.042-.918.128v-1.041l1.983-2.175h-3.098"/></g><g fill="#fff"><path d="m63.741 8.307c-.339.555-.509 1.284-.509 2.186 0 .902.17 1.631.509 2.186.338.555.867.833 1.586.833.718 0 1.243-.276 1.573-.827.331-.552.496-1.282.496-2.192 0-.909-.165-1.639-.496-2.191-.331-.551-.855-.828-1.573-.828-.719 0-1.247.277-1.586.833m-1.035 5.233c-.58-.759-.869-1.775-.869-3.048 0-1.272.29-2.288.869-3.047.579-.76 1.453-1.139 2.62-1.139 1.166 0 2.041.38 2.62 1.139.58.759.869 1.775.869 3.047 0 1.272-.29 2.289-.869 3.048-.58.76-1.454 1.139-2.62 1.139-1.168 0-2.041-.38-2.62-1.139"/><path d="m48.29 8.307c-.339.555-.509 1.284-.509 2.186 0 .902.17 1.631.509 2.186.338.555.867.833 1.586.833.718 0 1.243-.276 1.573-.827.331-.552.496-1.282.496-2.192 0-.909-.165-1.639-.496-2.191-.331-.551-.855-.828-1.573-.828-.719 0-1.247.277-1.586.833m-1.035 5.233c-.58-.759-.869-1.775-.869-3.048 0-1.272.29-2.288.869-3.047.579-.76 1.453-1.139 2.62-1.139 1.167 0 2.041.38 2.62 1.139.58.759.869 1.775.869 3.047 0 1.272-.29 2.289-.869 3.048-.58.76-1.453 1.139-2.62 1.139-1.167 0-2.041-.38-2.62-1.139"/><path d="m79.2 8.307c-.339.555-.509 1.284-.509 2.186 0 .902.17 1.631.509 2.186.338.555.867.833 1.586.833.718 0 1.243-.276 1.573-.827.331-.552.496-1.282.496-2.192 0-.909-.165-1.639-.496-2.191-.331-.551-.855-.828-1.573-.828-.719 0-1.247.277-1.586.833m-1.035 5.233c-.58-.759-.869-1.775-.869-3.048 0-1.272.29-2.288.869-3.047.579-.76 1.453-1.139 2.62-1.139 1.167 0 2.041.38 2.62 1.139.58.759.869 1.775.869 3.047 0 1.272-.29 2.289-.869 3.048-.58.76-1.453 1.139-2.62 1.139-1.167 0-2.041-.38-2.62-1.139"/></g></g></g></svg>